<?xml version="1.0" standalone="no"?>
<!DOCTYPE svg PUBLIC "-//W3C//DTD SVG 20010904//EN"
 "http://www.w3.org/TR/2001/REC-SVG-20010904/DTD/svg10.dtd">
<svg version="1.0" xmlns="http://www.w3.org/2000/svg"
 width="512.000000pt" height="512.000000pt" viewBox="0 0 512.000000 512.000000"
 preserveAspectRatio="xMidYMid meet">
<metadata>
Created by potrace 1.11, written by Peter Selinger 2001-2013
</metadata>
<g transform="translate(0.000000,512.000000) scale(0.100000,-0.100000)"
fill="#000000" stroke="none">
<path d="M2499 5093 c-19 -15 -36 -30 -39 -33 -3 -3 -57 -52 -120 -110 -63
-58 -117 -107 -120 -110 -3 -3 -88 -82 -190 -175 -211 -193 -258 -236 -349
-321 -36 -34 -93 -85 -125 -115 -69 -63 -80 -73 -205 -188 -52 -47 -126 -115
-165 -151 -117 -109 -122 -114 -167 -155 -59 -52 -262 -239 -324 -296 -55 -52
-100 -93 -160 -148 -129 -116 -296 -272 -337 -312 -39 -38 -48 -53 -48 -81 0
-44 38 -88 77 -89 15 -1 145 -2 288 -2 l260 -2 1 -1345 c1 -740 2 -1359 3
-1376 1 -19 11 -41 27 -58 l27 -26 1726 0 1727 0 29 30 30 31 0 1372 0 1373
260 -1 c143 0 275 3 294 7 45 9 61 27 68 76 5 40 3 44 -48 94 -30 29 -103 98
-163 153 -61 55 -117 107 -126 115 -39 36 -228 210 -255 235 -16 15 -68 61
-114 104 -46 42 -98 90 -116 106 -104 97 -251 233 -269 248 -12 10 -63 58
-115 105 -104 97 -137 127 -196 181 -80 72 -302 276 -371 340 -39 36 -115 107
-169 156 -54 50 -103 95 -109 100 -6 6 -65 60 -131 120 -66 61 -122 112 -125
115 -65 64 -111 74 -161 33z m139 -1239 c28 -19 29 -57 2 -84 -53 -53 -131 23
-80 78 24 26 47 28 78 6z m-705 -886 c15 -22 1 -63 -25 -75 -49 -22 -102 32
-77 78 22 42 75 41 102 -3z m1453 -469 c33 -27 4 -99 -41 -99 -50 0 -75 54
-43 95 21 26 55 28 84 4z m-1950 -457 c33 -22 34 -78 2 -98 -39 -25 -88 1 -88
46 0 47 49 77 86 52z m2396 -489 c22 -20 23 -56 2 -77 -25 -25 -71 -24 -91 2
-42 56 36 123 89 75z"/>
</g>
</svg>
