<?xml version="1.0" standalone="no"?>
<!DOCTYPE svg PUBLIC "-//W3C//DTD SVG 20010904//EN"
 "http://www.w3.org/TR/2001/REC-SVG-20010904/DTD/svg10.dtd">
<svg version="1.0" xmlns="http://www.w3.org/2000/svg"
 width="486.000000pt" height="486.000000pt" viewBox="0 0 486.000000 486.000000"
 preserveAspectRatio="xMidYMid meet">
<metadata>
Created by potrace 1.11, written by Peter Selinger 2001-2013
</metadata>
<g transform="translate(0.000000,486.000000) scale(0.100000,-0.100000)"
fill="#000000" stroke="none">
<path d="M2635 4393 c-32 -9 -65 -34 -81 -64 -20 -39 -17 -91 10 -184 63 -210
-24 -425 -171 -425 -106 0 -156 133 -98 259 14 30 26 69 27 86 3 83 -95 125
-161 69 -43 -36 -42 -82 3 -153 34 -53 50 -107 42 -146 -3 -11 -5 -28 -5 -37
-1 -9 -18 -35 -39 -58 -44 -45 -76 -51 -140 -25 -112 47 -152 182 -114 385 15
79 -10 143 -71 181 -45 28 -127 22 -163 -12 -37 -34 -56 -77 -56 -120 1 -38
28 -109 42 -109 4 0 34 -27 67 -60 79 -79 104 -131 110 -228 5 -69 3 -81 -18
-111 -13 -19 -66 -63 -117 -97 -51 -35 -111 -79 -133 -97 -71 -62 -162 -73
-245 -32 -86 43 -224 195 -224 248 0 28 -36 99 -62 124 -83 77 -226 24 -245
-90 -14 -90 46 -161 147 -172 87 -10 176 -56 261 -134 96 -87 121 -154 88
-234 -53 -126 -147 -108 -269 53 -16 21 -59 40 -91 40 -65 0 -111 -81 -79
-141 17 -30 59 -46 138 -53 169 -13 234 -124 132 -226 -46 -46 -93 -58 -183
-48 -92 11 -167 41 -228 91 -28 23 -62 51 -75 62 -35 28 -113 25 -159 -6 -65
-44 -83 -147 -37 -209 10 -14 36 -35 57 -46 46 -27 87 -24 173 11 78 32 177
33 267 3 125 -41 149 -81 161 -263 14 -229 12 -267 -15 -307 -63 -92 -217
-138 -349 -104 -91 23 -132 14 -186 -43 -25 -26 -29 -39 -30 -88 -1 -69 27
-117 80 -139 75 -32 140 -12 195 58 18 24 45 53 59 66 132 122 324 127 386 10
51 -98 -37 -186 -234 -233 -63 -15 -77 -22 -93 -49 -53 -84 43 -191 122 -135
15 10 42 43 59 72 71 115 183 183 254 153 51 -21 71 -60 71 -142 0 -66 -3 -75
-39 -130 -67 -101 -158 -170 -266 -203 -57 -18 -95 -46 -113 -84 -23 -47 -21
-82 4 -135 23 -46 77 -81 128 -82 39 0 105 37 124 70 10 16 16 30 13 30 -3 0
-1 11 4 26 6 14 12 39 15 56 17 92 101 220 184 280 153 110 312 20 246 -138
-14 -33 -109 -134 -127 -134 -12 0 -38 -57 -38 -85 0 -38 50 -85 90 -85 42 0
87 25 96 52 4 13 8 57 8 98 2 126 59 211 144 212 111 1 174 -143 128 -295 -15
-50 -59 -125 -99 -168 -52 -55 -63 -118 -32 -180 44 -84 126 -109 208 -62 67
39 80 114 42 243 -36 120 -24 252 29 312 40 47 88 65 191 73 33 2 94 8 135 12
168 16 225 -7 279 -115 41 -82 46 -144 23 -257 -14 -69 -6 -132 22 -169 71
-93 221 -56 257 64 16 53 -7 114 -58 155 -122 97 -170 187 -165 312 4 128 149
208 223 125 32 -35 56 -111 58 -180 1 -35 53 -82 91 -82 69 0 115 54 98 115
-11 41 -27 59 -68 80 -140 71 -175 177 -81 245 17 11 53 24 80 27 67 8 140
-28 217 -105 54 -54 66 -75 136 -234 12 -26 34 -60 50 -75 26 -24 37 -28 91
-28 71 0 117 26 138 78 26 62 5 147 -43 182 -24 16 -100 40 -153 49 -44 6 -64
15 -127 58 -97 65 -160 158 -164 243 -2 44 6 65 60 170 33 66 67 134 74 152
64 155 250 159 432 8 59 -48 104 -66 148 -59 83 15 128 68 126 150 -2 62 -27
104 -78 128 -47 22 -88 20 -173 -9 -98 -34 -177 -34 -257 -1 -78 33 -139 117
-129 180 18 112 143 139 338 72 50 -18 88 -5 115 39 23 37 21 72 -5 111 -24
38 -72 36 -162 -7 -77 -36 -128 -47 -193 -45 -58 3 -95 30 -109 82 -25 91 44
187 156 220 44 13 74 15 137 9 195 -19 242 -10 282 51 80 122 -44 276 -180
224 -25 -9 -43 -25 -131 -120 -63 -68 -183 -113 -264 -98 -73 13 -114 48 -172
145 -28 49 -70 114 -92 146 -49 70 -68 135 -54 189 16 63 119 144 207 163 62
13 109 43 129 84 68 132 -69 272 -199 202 -50 -27 -68 -57 -85 -144 -15 -80
-40 -139 -83 -195 -58 -76 -120 -77 -277 -2 -60 29 -135 64 -165 78 -103 48
-142 110 -135 214 7 110 44 199 115 273 52 56 67 98 57 162 -13 79 -103 128
-192 106z"/>
</g>
</svg>
